<?xml version="1.0" encoding="UTF-8"?>
<svg xmlns="http://www.w3.org/2000/svg" xmlns:xlink="http://www.w3.org/1999/xlink" viewBox="0 0 1203.66 871.07">
  <defs>
    <style>
      .cls-1 {
        clip-path: url(#clippath);
      }

      .cls-2 {
        fill: none;
      }

      .cls-2, .cls-3, .cls-4, .cls-5, .cls-6, .cls-7, .cls-8, .cls-9, .cls-10, .cls-11, .cls-12, .cls-13, .cls-14, .cls-15, .cls-16 {
        stroke-width: 0px;
      }

      .cls-3 {
        fill: url(#linear-gradient);
      }

      .cls-4 {
        fill: url(#radial-gradient);
      }

      .cls-17 {
        clip-path: url(#clippath-1);
      }

      .cls-18 {
        clip-path: url(#clippath-4);
      }

      .cls-19 {
        clip-path: url(#clippath-3);
      }

      .cls-20 {
        clip-path: url(#clippath-2);
      }

      .cls-5 {
        fill: url(#radial-gradient-2);
      }

      .cls-6 {
        fill: url(#radial-gradient-3);
      }

      .cls-7 {
        fill: url(#radial-gradient-4);
      }

      .cls-8 {
        fill: url(#linear-gradient-4);
      }

      .cls-9 {
        fill: url(#linear-gradient-2);
      }

      .cls-10 {
        fill: url(#linear-gradient-3);
      }

      .cls-11 {
        fill: url(#linear-gradient-8);
      }

      .cls-12 {
        fill: url(#linear-gradient-7);
      }

      .cls-13 {
        fill: url(#linear-gradient-5);
      }

      .cls-14 {
        fill: url(#linear-gradient-6);
      }

      .cls-21 {
        isolation: isolate;
      }

      .cls-22 {
        mix-blend-mode: multiply;
        opacity: .5;
      }

      .cls-15 {
        fill: #e5e5e5;
      }

      .cls-16 {
        fill: #e6e6e6;
      }
    </style>
    <clipPath id="clippath">
      <rect class="cls-2" x="266.61" y="71.89" width="817.26" height="507.39"/>
    </clipPath>
    <linearGradient id="linear-gradient" x1="266.55" y1="77.06" x2="1084.16" y2="574.26" gradientUnits="userSpaceOnUse">
      <stop offset="0" stop-color="#42006b"/>
      <stop offset="1" stop-color="#00cca7"/>
    </linearGradient>
    <linearGradient id="linear-gradient-2" x1="716.33" y1="-107.31" x2="221.47" y2="387.55" gradientTransform="translate(1309.26 640.32) rotate(-180)" gradientUnits="userSpaceOnUse">
      <stop offset="0" stop-color="#3683b1" stop-opacity="0"/>
      <stop offset="1" stop-color="#320051" stop-opacity=".25"/>
    </linearGradient>
    <linearGradient id="linear-gradient-3" x1="1051.18" y1="149.29" x2="795.28" y2="405.19" gradientUnits="userSpaceOnUse">
      <stop offset="0" stop-color="#3683b1" stop-opacity="0"/>
      <stop offset="1" stop-color="#36ccb1" stop-opacity=".25"/>
    </linearGradient>
    <linearGradient id="linear-gradient-4" x1="561.27" y1="309.8" x2="109.51" y2="761.56" gradientUnits="userSpaceOnUse">
      <stop offset="0" stop-color="#320051" stop-opacity=".25"/>
      <stop offset="1" stop-color="#3683b1" stop-opacity="0"/>
    </linearGradient>
    <linearGradient id="linear-gradient-5" x1="602.35" y1="149.77" x2="476.32" y2="275.81" gradientTransform="translate(184.43 -147.16)" gradientUnits="userSpaceOnUse">
      <stop offset="0" stop-color="#3683b1" stop-opacity="0"/>
      <stop offset="1" stop-color="#36ccb1" stop-opacity=".25"/>
    </linearGradient>
    <linearGradient id="linear-gradient-6" x1="306.63" y1="202.8" x2="205.49" y2="303.93" gradientTransform="translate(184.43 -147.16)" gradientUnits="userSpaceOnUse">
      <stop offset="0" stop-color="#3683b1" stop-opacity="0"/>
      <stop offset="1" stop-color="#36ccb1" stop-opacity=".25"/>
    </linearGradient>
    <linearGradient id="linear-gradient-7" x1="565.95" y1="163.46" x2="397.91" y2="331.51" gradientTransform="translate(890.07 826.49) rotate(-180)" gradientUnits="userSpaceOnUse">
      <stop offset="0" stop-color="#3683b1" stop-opacity="0"/>
      <stop offset="1" stop-color="#36ccb1" stop-opacity=".25"/>
    </linearGradient>
    <linearGradient id="linear-gradient-8" x1="426.63" y1="63.33" x2="258.58" y2="231.38" gradientTransform="translate(653.77 213.13)" xlink:href="#linear-gradient-5"/>
    <clipPath id="clippath-1">
      <rect class="cls-2" x="289.55" y="300.33" width="852.69" height="56.7" transform="translate(-22.73 602.49) rotate(-45)"/>
    </clipPath>
    <radialGradient id="radial-gradient" cx="949.17" cy="223.34" fx="949.17" fy="223.34" r="413.74" gradientTransform="translate(59.11 996.4) rotate(-45) scale(1 .09)" gradientUnits="userSpaceOnUse">
      <stop offset="0" stop-color="#3683b1"/>
      <stop offset=".03" stop-color="#2f729b" stop-opacity=".88"/>
      <stop offset=".08" stop-color="#245876" stop-opacity=".67"/>
      <stop offset=".13" stop-color="#1a4056" stop-opacity=".49"/>
      <stop offset=".2" stop-color="#122b3b" stop-opacity=".34"/>
      <stop offset=".27" stop-color="#0b1b25" stop-opacity=".21"/>
      <stop offset=".35" stop-color="#060f14" stop-opacity=".12"/>
      <stop offset=".45" stop-color="#020608" stop-opacity=".05"/>
      <stop offset=".6" stop-color="#000101" stop-opacity=".01"/>
      <stop offset="1" stop-color="#000" stop-opacity="0"/>
    </radialGradient>
    <clipPath id="clippath-2">
      <rect class="cls-2" x="620.39" y="474.08" width="663.9" height="44.14" transform="translate(-71.9 818.73) rotate(-45)"/>
    </clipPath>
    <radialGradient id="radial-gradient-2" cx="995.15" cy="3248.08" fx="995.15" fy="3248.08" r="322.14" xlink:href="#radial-gradient"/>
    <clipPath id="clippath-3">
      <rect class="cls-2" x="79.31" y="371.59" width="890.5" height="59.21" transform="translate(-130.05 488.43) rotate(-45)"/>
    </clipPath>
    <radialGradient id="radial-gradient-3" cx="581.93" cy="-1987.08" fx="581.93" fy="-1987.08" r="432.08" gradientTransform="translate(776.05 -151.68) rotate(135) scale(1 .09)" xlink:href="#radial-gradient"/>
    <clipPath id="clippath-4">
      <rect class="cls-2" x="106.9" y="284.16" width="555.32" height="36.92" transform="translate(-101.35 360.56) rotate(-45)"/>
    </clipPath>
    <radialGradient id="radial-gradient-4" cx="606.27" cy="-281.02" fx="606.27" fy="-281.02" r="269.45" gradientTransform="translate(776.05 -151.68) rotate(135) scale(1 .09)" xlink:href="#radial-gradient"/>
  </defs>
  <g class="cls-21">
    <g id="BACKGROUND">
      <rect class="cls-16" x="266.61" y="71.89" width="750" height="500"/>
    </g>
    <g id="OBJECTS">
      <g class="cls-1">
        <rect class="cls-3" x="266.61" y="71.89" width="817.26" height="507.39"/>
        <path class="cls-9" d="M951.71,248.76c38.68-38.68,101.41-38.68,140.09,0,38.69,38.68,38.69,101.41,0,140.09l-427.89,427.88-140.09-140.09,427.89-427.88Z"/>
        <path class="cls-10" d="M865.66,407.27c-20.01,20-52.44,20-72.44,0-20.01-20-20.01-52.44,0-72.45l221.27-221.26,72.44,72.44-221.27,221.27Z"/>
        <path class="cls-8" d="M666.26,416.51c-58.46,58.45-153.25,58.45-211.7,0-58.46-58.46-58.46-153.25,0-211.71L0,659.37l211.7,211.7,454.56-454.56Z"/>
        <path class="cls-13" d="M665.42,129.66c-1.57,1.57-4.12,1.57-5.69,0-1.57-1.57-1.57-4.12,0-5.69L783.7,0l5.69,5.69-123.97,123.97Z"/>
        <path class="cls-14" d="M393.67,157.59c-1.26,1.26-3.3,1.26-4.57,0-1.26-1.26-1.26-3.31,0-4.57l99.48-99.48,4.57,4.57-99.48,99.48Z"/>
        <path class="cls-12" d="M485.94,493.62c2.09-2.09,5.49-2.09,7.59,0,2.09,2.1,2.09,5.49,0,7.59l-165.3,165.3-7.59-7.59,165.3-165.3Z"/>
        <path class="cls-11" d="M918.57,445.88c-2.09,2.09-5.49,2.09-7.59,0-2.1-2.1-2.1-5.49,0-7.59l165.3-165.3,7.59,7.59-165.3,165.3Z"/>
        <g class="cls-22">
          <g class="cls-17">
            <path class="cls-4" d="M1037.42,47.25c-14.92-14.92-158,103.97-319.58,265.56-161.58,161.58-280.48,304.66-265.56,319.58,14.92,14.92,158-103.97,319.59-265.55,161.58-161.58,280.47-304.67,265.55-319.59Z"/>
          </g>
        </g>
        <g class="cls-22">
          <g class="cls-20">
            <path class="cls-5" d="M1202.67,277.03c-11.62-11.62-123.02,80.95-248.83,206.76-125.81,125.8-218.38,237.21-206.76,248.83,11.62,11.62,123.02-80.95,248.83-206.76,125.8-125.81,218.37-237.21,206.76-248.83Z"/>
          </g>
        </g>
        <g class="cls-22">
          <g class="cls-19">
            <path class="cls-6" d="M188.79,695.1c15.58,15.58,165.01-108.58,333.75-277.33,168.75-168.74,292.91-318.17,277.33-333.76-15.58-15.58-165.01,108.58-333.76,277.33-168.74,168.75-292.91,318.17-277.33,333.76Z"/>
          </g>
        </g>
        <g class="cls-22">
          <g class="cls-18">
            <path class="cls-7" d="M175.17,485.9c9.72,9.72,102.9-67.71,208.13-172.95,105.23-105.23,182.66-198.41,172.94-208.13-9.72-9.72-102.9,67.71-208.13,172.94-105.23,105.23-182.66,198.41-172.94,208.13Z"/>
          </g>
        </g>
        <g>
          <path class="cls-15" d="M835.79,339.32c0,.58-.47,1.05-1.05,1.05s-1.05-.47-1.05-1.05.47-1.05,1.05-1.05,1.05.47,1.05,1.05Z"/>
          <path class="cls-15" d="M559.03,409.34c0,.58-.47,1.05-1.05,1.05s-1.05-.47-1.05-1.05.47-1.05,1.05-1.05,1.05.47,1.05,1.05Z"/>
          <path class="cls-15" d="M300.32,406.68c0,.58-.47,1.05-1.05,1.05s-1.05-.47-1.05-1.05.47-1.05,1.05-1.05,1.05.47,1.05,1.05Z"/>
          <path class="cls-15" d="M688.38,266.95c0,.58-.47,1.05-1.05,1.05s-1.05-.47-1.05-1.05.47-1.05,1.05-1.05,1.05.47,1.05,1.05Z"/>
          <path class="cls-15" d="M763.5,186.65c0,.58-.47,1.05-1.05,1.05s-1.05-.47-1.05-1.05.47-1.05,1.05-1.05,1.05.47,1.05,1.05Z"/>
          <path class="cls-15" d="M639.31,134.95c0,.58-.47,1.05-1.05,1.05s-1.05-.47-1.05-1.05.47-1.05,1.05-1.05,1.05.47,1.05,1.05Z"/>
          <path class="cls-15" d="M851.35,401.65c0,.58-.47,1.05-1.05,1.05s-1.05-.47-1.05-1.05.47-1.05,1.05-1.05,1.05.47,1.05,1.05Z"/>
          <path class="cls-15" d="M952.38,525.88c0,.58-.47,1.05-1.05,1.05s-1.05-.47-1.05-1.05.47-1.05,1.05-1.05,1.05.47,1.05,1.05Z"/>
          <path class="cls-15" d="M626.23,479.24c0,.58-.47,1.05-1.05,1.05s-1.05-.47-1.05-1.05.47-1.05,1.05-1.05,1.05.47,1.05,1.05Z"/>
          <path class="cls-15" d="M463.59,501.75c0,.58-.47,1.05-1.05,1.05s-1.05-.47-1.05-1.05.47-1.05,1.05-1.05,1.05.47,1.05,1.05Z"/>
          <path class="cls-15" d="M294.82,522.18c0,.58-.47,1.05-1.05,1.05s-1.05-.47-1.05-1.05.47-1.05,1.05-1.05,1.05.47,1.05,1.05Z"/>
          <path class="cls-15" d="M528.8,366.06c0,.58-.47,1.05-1.05,1.05s-1.05-.47-1.05-1.05.47-1.05,1.05-1.05,1.05.47,1.05,1.05Z"/>
          <path class="cls-15" d="M447,299.55c0,.58-.47,1.05-1.05,1.05s-1.05-.47-1.05-1.05.47-1.05,1.05-1.05,1.05.47,1.05,1.05Z"/>
          <path class="cls-15" d="M487.89,142.27c0,.58-.47,1.05-1.05,1.05s-1.05-.47-1.05-1.05.47-1.05,1.05-1.05,1.05.47,1.05,1.05Z"/>
          <path class="cls-15" d="M585.08,123.12c0,.58-.47,1.05-1.05,1.05s-1.05-.47-1.05-1.05.47-1.05,1.05-1.05,1.05.47,1.05,1.05Z"/>
          <path class="cls-15" d="M869.01,145.99c0,.58-.47,1.05-1.05,1.05s-1.05-.47-1.05-1.05.47-1.05,1.05-1.05,1.05.47,1.05,1.05Z"/>
          <path class="cls-15" d="M1014.93,176.75c0,.58-.47,1.05-1.05,1.05s-1.05-.47-1.05-1.05.47-1.05,1.05-1.05,1.05.47,1.05,1.05Z"/>
          <path class="cls-15" d="M911.23,226.63c0,.58-.47,1.05-1.05,1.05s-1.05-.47-1.05-1.05.47-1.05,1.05-1.05,1.05.47,1.05,1.05Z"/>
          <path class="cls-15" d="M980.41,355.88c0,.58-.47,1.05-1.05,1.05s-1.05-.47-1.05-1.05.47-1.05,1.05-1.05,1.05.47,1.05,1.05Z"/>
          <path class="cls-15" d="M1021.34,474.64c0,.58-.47,1.05-1.05,1.05s-1.05-.47-1.05-1.05.47-1.05,1.05-1.05,1.05.47,1.05,1.05Z"/>
          <path class="cls-15" d="M815.42,472.4c0,.58-.47,1.05-1.05,1.05s-1.05-.47-1.05-1.05.47-1.05,1.05-1.05,1.05.47,1.05,1.05Z"/>
          <path class="cls-15" d="M670.79,495.42c0,.58-.47,1.05-1.05,1.05s-1.05-.47-1.05-1.05.47-1.05,1.05-1.05,1.05.47,1.05,1.05Z"/>
          <path class="cls-15" d="M526.3,500.51c0,.58-.47,1.05-1.05,1.05s-1.05-.47-1.05-1.05.47-1.05,1.05-1.05,1.05.47,1.05,1.05Z"/>
          <path class="cls-15" d="M906.07,527.41c0,.58-.47,1.05-1.05,1.05s-1.05-.47-1.05-1.05.47-1.05,1.05-1.05,1.05.47,1.05,1.05Z"/>
          <path class="cls-15" d="M1080.07,577.19c0,.58-.47,1.05-1.05,1.05s-1.05-.47-1.05-1.05.47-1.05,1.05-1.05,1.05.47,1.05,1.05Z"/>
          <path class="cls-15" d="M1018.72,491.67c0,.58-.47,1.05-1.05,1.05s-1.05-.47-1.05-1.05.47-1.05,1.05-1.05,1.05.47,1.05,1.05Z"/>
          <path class="cls-15" d="M876.86,386.61c0,.58-.47,1.05-1.05,1.05s-1.05-.47-1.05-1.05.47-1.05,1.05-1.05,1.05.47,1.05,1.05Z"/>
          <path class="cls-15" d="M993.15,262.48c0,.58-.47,1.05-1.05,1.05s-1.05-.47-1.05-1.05.47-1.05,1.05-1.05,1.05.47,1.05,1.05Z"/>
          <path class="cls-15" d="M1077.6,276.58c0,.58-.47,1.05-1.05,1.05s-1.05-.47-1.05-1.05.47-1.05,1.05-1.05,1.05.47,1.05,1.05Z"/>
          <path class="cls-15" d="M878.08,341.69c0,.58-.47,1.05-1.05,1.05s-1.05-.47-1.05-1.05.47-1.05,1.05-1.05,1.05.47,1.05,1.05Z"/>
          <path class="cls-15" d="M787.07,473.68c0,.58-.47,1.05-1.05,1.05s-1.05-.47-1.05-1.05.47-1.05,1.05-1.05,1.05.47,1.05,1.05Z"/>
          <path class="cls-15" d="M733.45,533.86c0,.58-.47,1.05-1.05,1.05s-1.05-.47-1.05-1.05.47-1.05,1.05-1.05,1.05.47,1.05,1.05Z"/>
          <path class="cls-15" d="M741.06,423.66c0,.58-.47,1.05-1.05,1.05s-1.05-.47-1.05-1.05.47-1.05,1.05-1.05,1.05.47,1.05,1.05Z"/>
          <path class="cls-15" d="M652.84,321.35c0,.58-.47,1.05-1.05,1.05s-1.05-.47-1.05-1.05.47-1.05,1.05-1.05,1.05.47,1.05,1.05Z"/>
          <path class="cls-15" d="M711.7,204.87c0,.58-.47,1.05-1.05,1.05s-1.05-.47-1.05-1.05.47-1.05,1.05-1.05,1.05.47,1.05,1.05Z"/>
          <path class="cls-15" d="M352.4,144.86c0,.58-.47,1.05-1.05,1.05s-1.05-.47-1.05-1.05.47-1.05,1.05-1.05,1.05.47,1.05,1.05Z"/>
          <path class="cls-15" d="M384.32,341.79c0,.58-.47,1.05-1.05,1.05s-1.05-.47-1.05-1.05.47-1.05,1.05-1.05,1.05.47,1.05,1.05Z"/>
          <path class="cls-15" d="M334.58,508.08c0,.58-.47,1.05-1.05,1.05s-1.05-.47-1.05-1.05.47-1.05,1.05-1.05,1.05.47,1.05,1.05Z"/>
          <path class="cls-15" d="M970.06,147.27c0,.58-.47,1.05-1.05,1.05s-1.05-.47-1.05-1.05.47-1.05,1.05-1.05,1.05.47,1.05,1.05Z"/>
          <path class="cls-15" d="M583.83,84.57c0,.58-.47,1.05-1.05,1.05s-1.05-.47-1.05-1.05.47-1.05,1.05-1.05,1.05.47,1.05,1.05Z"/>
        </g>
      </g>
    </g>
  </g>
</svg>