<?xml version="1.0" encoding="UTF-8"?>
<svg id="Layer_1" data-name="Layer 1" xmlns="http://www.w3.org/2000/svg" viewBox="0 0 2700.43 1949.89">
  <defs>
    <style>
      .cls-1 {
        fill: rgba(255, 255, 255, .8);
        fill-rule: evenodd;
      }

      .cls-1, .cls-2 {
        stroke-width: 0px;
      }

      .cls-2 {
        fill: #68cdee;
      }
    </style>
  </defs>
  <path class="cls-1" d="M647.38,0c257.29,0,468.91,201.69,494.36,460.15l.43,8.77,2.14,43.63v325.37s.35.28.35.28l270.3,323.6c7.19,8.61,12.29,18.26,15.37,28.35l1.1,10.64,1.92,17.24v1.41s.17,1.68.17,1.68l-.17.6v583.14c0,44.85-36.36,81.21-81.21,81.21h0c-44.85,0-81.21-36.36-81.21-81.21v-499.47s-1.07-33.23-1.07-33.23l-4.61-31.17c-2.47-8.1-6.56-15.86-12.33-22.77l-348.69-417.8c-23.08-27.65-64.2-31.36-91.85-8.28-27.65,23.08-31.36,64.2-8.28,91.85l105.59,126.52-129.22,147.76-16.55-8.98c-26.47-11.2-55.57-17.39-86.12-17.39-122.2,0-221.25,99.06-221.25,221.25s99.06,221.25,221.25,221.25,221.25-99.06,221.25-221.25c0-30.55-6.19-59.65-17.39-86.12l-8.83-16.26,121.45-138.89,150.03,179.77v145.65l-2.57,52.41c-25.45,258.46-237.07,460.15-494.36,460.15-154.37,0-292.31-72.61-383.45-186.52l-55.72-72.12C81.05,1518.24,0,1256.43,0,963.41,0,540.15,169.11,182.01,402.01,62.59l49.82-21.12c16.61-7.04,62.81-24.14,95.4-31.06C579.58,3.59,613.08,0,647.38,0ZM677.78,311.24c-122.2,0-221.25,99.06-221.25,221.25,0,122.2,99.06,221.25,221.25,221.25s221.25-99.06,221.25-221.25c0-122.2-99.06-221.25-221.25-221.25ZM677.78,421.87c61.1,0,110.63,49.53,110.63,110.63,0,61.1-49.53,110.63-110.63,110.63s-110.63-49.53-110.63-110.63c0-61.1,49.53-110.63,110.63-110.63ZM677.78,1242.55c61.1,0,110.63,49.53,110.63,110.63,0,61.1-49.53,110.63-110.63,110.63-61.1,0-110.63-49.53-110.63-110.63,0-61.1,49.53-110.63,110.63-110.63Z"/>
  <circle class="cls-2" cx="471.27" cy="958.82" r="110.63" transform="translate(-564.49 1220.78) rotate(-78.02)"/>
  <path class="cls-1" d="M2053.04,0c154.37,0,292.31,72.61,383.45,186.52l55.72,72.12c127.16,173,208.21,434.82,208.21,727.84,0,423.25-169.11,781.4-402.01,900.82l-49.82,21.12c-16.61,7.04-62.81,24.14-95.4,31.06-32.35,6.83-65.84,10.41-100.15,10.41-257.29,0-468.91-201.69-494.36-460.15l-.43-8.77-2.14-43.63v-325.37l-.35-.28-270.3-323.6c-7.19-8.61-12.29-18.26-15.37-28.35l-1.1-10.64-1.92-17.24v-1.41l-.17-1.68.17-.6V145.01c0-44.85,36.36-81.21,81.21-81.21h0c44.85,0,81.21,36.36,81.21,81.21v499.47s1.07,33.23,1.07,33.23l4.61,31.17c2.47,8.1,6.56,15.86,12.33,22.77l348.69,417.8.84.67,82.97,99.41-13.83,11.41c-40.04,40.04-64.8,95.35-64.8,156.45,0,122.2,99.06,221.25,221.25,221.26,122.2,0,221.25-99.06,221.25-221.25s-99.06-221.25-221.26-221.25l-15.97,1.61-215.78-258.55,129.07-147.6,16.55,8.98c26.47,11.2,55.57,17.39,86.12,17.39,122.2,0,221.25-99.06,221.25-221.25s-99.06-221.26-221.25-221.26-221.26,99.06-221.25,221.25c0,30.55,6.19,59.65,17.39,86.12l8.83,16.26-121.31,138.72-14.32-17.16-.84-.67-135.01-161.77v-145.65s2.57-52.41,2.57-52.41C1584.13,201.69,1795.75,0,2053.04,0ZM2022.65,486.09c61.1,0,110.63,49.53,110.63,110.63s-49.53,110.63-110.63,110.63-110.63-49.53-110.63-110.63c0-61.1,49.53-110.63,110.63-110.63ZM2022.65,1306.77c61.1,0,110.63,49.53,110.63,110.63s-49.53,110.63-110.63,110.63-110.63-49.53-110.63-110.63,49.53-110.63,110.63-110.63Z"/>
  <circle class="cls-2" cx="2243.9" cy="1021.86" r="110.63" transform="translate(875.81 3073.1) rotate(-80.78)"/>
</svg>