<?xml version="1.0" encoding="UTF-8"?>
<svg id="Layer_1" data-name="Layer 1" xmlns="http://www.w3.org/2000/svg" xmlns:xlink="http://www.w3.org/1999/xlink" viewBox="0 0 1305.87 1150.78">
  <defs>
    <style>
      .cls-1 {
        fill: #007691;
      }

      .cls-1, .cls-2, .cls-3, .cls-4 {
        stroke-width: 0px;
      }

      .cls-5 {
        clip-path: url(#clippath);
      }

      .cls-2 {
        fill: none;
      }

      .cls-3 {
        fill: #2fa5b5;
      }

      .cls-4 {
        fill: #fff;
      }
    </style>
    <clipPath id="clippath">
      <rect class="cls-2" width="1305.87" height="1150.78" rx="178.63" ry="178.63"/>
    </clipPath>
  </defs>
  <g id="Layer_1-2" data-name="Layer 1">
    <rect class="cls-3" width="1305.87" height="1150.78" rx="178.63" ry="178.63"/>
    <g class="cls-5">
      <path class="cls-1" d="M-366.52,578.2s149.14-107.85,355.36,50.5c206.22,158.35,340.83,182.2,460.41,142.66s281.99,84.43,377.91,104.07c135.08,27.65,275.63-49.93,275.63-49.93,0,0,139.13-58.42,272.5,55.45,151.55,129.4,60.76,434.53,60.76,434.53H58.8l-465.83-464.15"/>
    </g>
    <g>
      <path class="cls-4" d="M510.61,241.9h-14.98c-1.91,0-3.72.4-5.48.97-8.78,2.85-15.26,12.21-15.26,23.45v50.44c0,2.55.43,4.96,1.04,7.27,2.64,9.92,10.41,17.15,19.7,17.15h14.98c11.46,0,20.74-10.93,20.74-24.42v-50.44c0-13.49-9.28-24.42-20.74-24.42h0Z"/>
      <path class="cls-4" d="M805.48,241.9h-14.98c-11.46,0-20.74,10.93-20.74,24.42v50.44c0,13.49,9.28,24.42,20.74,24.42h14.98c11.46,0,20.74-10.93,20.74-24.42v-50.44c0-13.49-9.29-24.42-20.74-24.42h0Z"/>
      <path class="cls-4" d="M882,303.04h-37.09v13.73c0,23.77-17.69,43.12-39.43,43.12h-14.98c-21.74,0-39.43-19.34-39.43-43.12v-13.73h-201.02v13.73c0,23.77-17.69,43.12-39.43,43.12h-14.98c-21.74,0-39.43-19.34-39.43-43.12v-13.73h-32.32c-20.59,0-37.28,15.65-37.28,34.95v465.5c0,19.33,16.7,34.95,37.28,34.95h458.12c20.61,0,37.28-15.62,37.28-34.95v-465.5c0-19.3-16.67-34.96-37.28-34.96h-.01ZM870.44,787.13l-436.36-.17v-375.29h436.36v375.46Z"/>
      <path class="cls-4" d="M699.67,502.11h114.76c9.96,0,18.02-9.95,18.02-22.24s-8.06-22.24-18.02-22.24h-114.76c-9.96,0-18.02,9.95-18.02,22.24s8.06,22.24,18.02,22.24Z"/>
      <path class="cls-4" d="M699.67,582.46h114.76c9.96,0,18.02-9.95,18.02-22.24s-8.06-22.24-18.02-22.24h-114.76c-9.96,0-18.02,9.95-18.02,22.24s8.06,22.24,18.02,22.24Z"/>
      <path class="cls-4" d="M699.67,662.8h114.76c9.96,0,18.02-9.95,18.02-22.24s-8.06-22.24-18.02-22.24h-114.76c-9.96,0-18.02,9.95-18.02,22.24s8.06,22.24,18.02,22.24Z"/>
      <path class="cls-4" d="M699.67,743.14h114.76c9.96,0,18.02-9.95,18.02-22.24s-8.06-22.24-18.02-22.24h-114.76c-9.96,0-18.02,9.95-18.02,22.24s8.06,22.24,18.02,22.24Z"/>
      <path class="cls-4" d="M496.4,502.11h114.76c9.96,0,18.02-9.95,18.02-22.24s-8.06-22.24-18.02-22.24h-114.76c-9.96,0-18.02,9.95-18.02,22.24s8.06,22.24,18.02,22.24h0Z"/>
      <path class="cls-4" d="M496.4,582.46h114.76c9.96,0,18.02-9.95,18.02-22.24s-8.06-22.24-18.02-22.24h-114.76c-9.96,0-18.02,9.95-18.02,22.24s8.06,22.24,18.02,22.24h0Z"/>
      <path class="cls-4" d="M496.4,662.8h114.76c9.96,0,18.02-9.95,18.02-22.24s-8.06-22.24-18.02-22.24h-114.76c-9.96,0-18.02,9.95-18.02,22.24s8.06,22.24,18.02,22.24h0Z"/>
      <path class="cls-4" d="M496.4,743.14h114.76c9.96,0,18.02-9.95,18.02-22.24s-8.06-22.24-18.02-22.24h-114.76c-9.96,0-18.02,9.95-18.02,22.24s8.06,22.24,18.02,22.24h0Z"/>
    </g>
  </g>
  <g id="Layer_2" data-name="Layer 2">
    <circle class="cls-4" cx="140.85" cy="223.58" r="33.14"/>
    <circle class="cls-4" cx="140.85" cy="132.99" r="33.14"/>
  </g>
</svg>