<?xml version="1.0" encoding="UTF-8"?>
<svg id="Layer_1" data-name="Layer 1" xmlns="http://www.w3.org/2000/svg" xmlns:xlink="http://www.w3.org/1999/xlink" viewBox="0 0 1305.87 1150.78">
  <defs>
    <style>
      .cls-1 {
        clip-path: url(#clippath);
      }

      .cls-2 {
        fill: none;
      }

      .cls-2, .cls-3, .cls-4, .cls-5, .cls-6 {
        stroke-width: 0px;
      }

      .cls-3 {
        fill: #e68d88;
      }

      .cls-4 {
        fill-rule: evenodd;
      }

      .cls-4, .cls-6 {
        fill: #fff;
      }

      .cls-5 {
        fill: #de5e6c;
      }
    </style>
    <clipPath id="clippath">
      <rect class="cls-2" width="1305.87" height="1150.78" rx="178.63" ry="178.63"/>
    </clipPath>
  </defs>
  <g id="Layer_1-2" data-name="Layer 1">
    <rect class="cls-5" width="1305.87" height="1150.78" rx="178.63" ry="178.63"/>
    <g class="cls-1">
      <path class="cls-3" d="M-366.52,578.2s149.14-107.85,355.36,50.5c206.22,158.35,340.83,182.2,460.41,142.66s281.99,84.43,377.91,104.07c135.08,27.65,275.63-49.93,275.63-49.93,0,0,139.13-58.42,272.5,55.45,151.55,129.4,60.76,434.53,60.76,434.53H58.8l-465.83-464.15"/>
    </g>
  </g>
  <g id="Layer_2" data-name="Layer 2">
    <circle class="cls-6" cx="140.85" cy="223.58" r="33.14"/>
    <circle class="cls-6" cx="140.85" cy="132.99" r="33.14"/>
  </g>
  <g id="Layer_3" data-name="Layer 3">
    <path class="cls-4" d="M789.88,505.87h152.85c20.72,0,37.69,16.97,37.69,37.69v154.5c0,20.72-16.97,37.69-37.69,37.69h-152.85c-63.2,0-114.94-51.74-114.94-114.94h0c.06-63.25,51.68-114.94,114.94-114.94h0ZM616.59,290.65l25.02,23.64,54.16-54.93c4.79-4.85,7.77-8.71,13.66-2.7l19.06,19.56c6.28,6.17,5.95,9.81.06,15.59l-76.04,71.74c-12.45,12.23-10.3,12.95-22.92.44l-45.07-41.82c-2.64-2.87-2.37-5.73.55-8.6l22.15-22.98c3.25-3.47,5.9-3.25,9.37.06h0ZM428.43,324.37h97.53c-.17-2.75-.28-5.51-.28-8.32.06-75.27,61.05-136.32,136.37-136.32s136.32,61.05,136.32,136.32c0,2.75-.11,5.51-.22,8.26l35.87-.06c36.64-.06,66.62,28.65,66.62,65.29v10.91c18.07,11.96,30.03,32.45,30.03,55.6v24.02h-42.32v-16.03c0-17.25-14.11-31.3-31.3-31.3h-389.28v-34.88c0-4.63,3.8-8.43,8.43-8.43h70.97c-4.68-7.27-8.65-15.04-11.9-23.2h-97.42c-12.12,0-21.98,9.92-21.98,21.98v400.19c0,12.12,9.92,21.98,21.98,21.98h428.12c12.12,0,21.98-9.92,21.98-21.98v-25.18h43.42v41.6h-.11c-.17,28.76-30.86,51.96-61.16,51.96h-441.84c-33.17-.06-60.33-27.22-60.33-60.39v-411.54c0-33.28,27.22-60.5,60.5-60.5h0v.02ZM788.78,366.19c-3.25,8.15-7.22,15.92-11.9,23.2h87.06c2.42,0,4.79.11,7.16.39v-1.6c0-12.12-9.92-21.98-21.98-21.98h-60.34ZM795.66,547.96h135.6v145.68h-135.6c-40.06,0-72.84-32.78-72.84-72.84h0c0-40.11,32.78-72.84,72.84-72.84h0ZM829,596.67c13.72,0,24.85,11.13,24.85,24.85s-11.13,24.85-24.85,24.85-24.85-11.13-24.85-24.85,11.13-24.85,24.85-24.85h0Z"/>
  </g>
</svg>