<?xml version="1.0" encoding="UTF-8"?>
<svg id="Layer_1" data-name="Layer 1" xmlns="http://www.w3.org/2000/svg" xmlns:xlink="http://www.w3.org/1999/xlink" viewBox="0 0 1305.87 1150.78">
  <defs>
    <style>
      .cls-1 {
        clip-path: url(#clippath);
      }

      .cls-2, .cls-3 {
        fill: none;
      }

      .cls-2, .cls-4, .cls-5, .cls-6 {
        stroke-width: 0px;
      }

      .cls-3 {
        stroke-linecap: round;
        stroke-width: 86px;
      }

      .cls-3, .cls-7 {
        stroke: #fff;
        stroke-miterlimit: 10;
      }

      .cls-4 {
        fill: #1a5e87;
      }

      .cls-5, .cls-7 {
        fill: #fff;
      }

      .cls-6 {
        fill: #0e86aa;
      }
    </style>
    <clipPath id="clippath">
      <rect class="cls-2" width="1305.87" height="1150.78" rx="178.63" ry="178.63"/>
    </clipPath>
  </defs>
  <g id="Layer_1-2" data-name="Layer 1">
    <rect class="cls-6" width="1305.87" height="1150.78" rx="178.63" ry="178.63"/>
    <g class="cls-1">
      <path class="cls-4" d="M-366.52,578.2s149.14-107.85,355.36,50.5c206.22,158.35,340.83,182.2,460.41,142.66s281.99,84.43,377.91,104.07c135.08,27.65,275.63-49.93,275.63-49.93,0,0,139.13-58.42,272.5,55.45,151.55,129.4,60.76,434.53,60.76,434.53H58.8l-465.83-464.15"/>
    </g>
  </g>
  <g id="Layer_2" data-name="Layer 2">
    <circle class="cls-5" cx="140.85" cy="223.58" r="33.14"/>
    <circle class="cls-5" cx="140.85" cy="132.99" r="33.14"/>
  </g>
  <g id="Layer_3" data-name="Layer 3">
    <g>
      <g>
        <polygon class="cls-7" points="976.51 792.06 782.67 677.81 971.23 579.45 976.51 792.06"/>
        <path class="cls-3" d="M557.7,829.14s219.64,73.31,333.84-120.46"/>
      </g>
      <g>
        <polygon class="cls-7" points="690.65 142.9 690.65 367.89 510.17 255.4 690.65 142.9"/>
        <path class="cls-3" d="M935.25,484.87s-48.36-226.44-273.29-226.44"/>
      </g>
      <g>
        <polygon class="cls-7" points="270.85 716.66 466.09 604.84 458.16 817.36 270.85 716.66"/>
        <path class="cls-3" d="M446.04,334.45s-172.46,154.5-60.68,349.68"/>
      </g>
    </g>
  </g>
</svg>