<?xml version="1.0" encoding="UTF-8"?>
<svg id="Layer_1" data-name="Layer 1" xmlns="http://www.w3.org/2000/svg" xmlns:xlink="http://www.w3.org/1999/xlink" viewBox="0 0 1305.87 1150.78">
  <defs>
    <style>
      .cls-1 {
        clip-path: url(#clippath);
      }

      .cls-2 {
        fill: none;
      }

      .cls-2, .cls-3, .cls-4, .cls-5 {
        stroke-width: 0px;
      }

      .cls-3 {
        fill: #7359a0;
      }

      .cls-4 {
        fill: #9165a5;
      }

      .cls-5 {
        fill: #fff;
      }
    </style>
    <clipPath id="clippath">
      <rect class="cls-2" width="1305.87" height="1150.78" rx="178.63" ry="178.63"/>
    </clipPath>
  </defs>
  <g id="Layer_1-2" data-name="Layer 1">
    <rect class="cls-4" width="1305.87" height="1150.78" rx="178.63" ry="178.63"/>
    <g class="cls-1">
      <path class="cls-3" d="M-366.52,578.2s149.14-107.85,355.36,50.5c206.22,158.35,340.83,182.2,460.41,142.66s281.99,84.43,377.91,104.07c135.08,27.65,275.63-49.93,275.63-49.93,0,0,139.13-58.42,272.5,55.45,151.55,129.4,60.76,434.53,60.76,434.53H58.8l-465.83-464.15"/>
    </g>
    <path class="cls-5" d="M821.1,510.48c10.33,10.33,11.8,28.03,1.48,39.83l-1.48,1.48-75.23,75.23c-22.13,22.13-57.53,23.6-81.13,2.95l-2.95-1.48-57.53-56.06-79.66,75.23c-11.8,11.8-30.98,10.33-41.3-1.48-10.33-11.8-10.33-28.03,0-39.83l1.48-1.48,79.66-75.23c22.13-20.65,56.06-20.65,79.66-1.48l2.95,1.48,57.53,56.06,75.23-75.23c11.8-11.8,29.5-11.8,41.3,0h-.01ZM874.2,368.87h-442.54c-16.23,0-28.03,11.8-29.5,28.03v355.51c0,16.23,11.8,28.03,28.03,29.5h444.02c16.23,0,28.03-11.8,29.5-28.03v-355.51c0-16.23-11.8-28.03-28.03-29.5h-1.48ZM874.2,309.86c48.68,0,88.51,39.83,88.51,88.51v354.03c0,48.68-39.83,88.51-88.51,88.51h-442.54c-48.68,0-88.51-39.83-88.51-88.51v-354.03c0-48.68,39.83-88.51,88.51-88.51h442.54Z"/>
  </g>
  <g id="Layer_2" data-name="Layer 2">
    <circle class="cls-5" cx="140.85" cy="223.58" r="33.14"/>
    <circle class="cls-5" cx="140.85" cy="132.99" r="33.14"/>
  </g>
</svg>