<?xml version="1.0" encoding="UTF-8"?>
<svg id="Layer_1" data-name="Layer 1" xmlns="http://www.w3.org/2000/svg" xmlns:xlink="http://www.w3.org/1999/xlink" viewBox="0 0 1305.05 1150.79">
  <defs>
    <style>
      .cls-1 {
        clip-path: url(#clippath);
      }

      .cls-2 {
        fill: none;
      }

      .cls-2, .cls-3, .cls-4, .cls-5 {
        stroke-width: 0px;
      }

      .cls-3 {
        fill: #00644b;
      }

      .cls-4 {
        fill: #019186;
      }

      .cls-5 {
        fill: #fff;
      }
    </style>
    <clipPath id="clippath">
      <rect class="cls-2" x="-.82" width="1305.87" height="1150.78" rx="178.63" ry="178.63"/>
    </clipPath>
  </defs>
  <g id="Layer_1-2" data-name="Layer 1">
    <rect class="cls-4" x="-.82" width="1305.87" height="1150.78" rx="178.63" ry="178.63"/>
    <g class="cls-1">
      <path class="cls-3" d="M-367.34,578.2s149.14-107.85,355.36,50.5c206.22,158.35,340.83,182.2,460.41,142.66s281.99,84.43,377.91,104.07c135.08,27.65,275.63-49.93,275.63-49.93,0,0,139.13-58.42,272.5,55.45,151.55,129.4,60.76,434.53,60.76,434.53H57.98l-465.83-464.15"/>
    </g>
  </g>
  <g id="Layer_2" data-name="Layer 2">
    <circle class="cls-5" cx="140.03" cy="223.58" r="33.14"/>
    <circle class="cls-5" cx="140.03" cy="132.99" r="33.14"/>
    <g id="Layer_2-2" data-name="Layer 2-2">
      <g>
        <path class="cls-5" d="M732.92,904.04c-6.6,1.64-13.32,3.1-20,4.33-17.45,3.25-28.99,20.03-25.76,37.5,1.59,8.59,6.47,15.75,13.1,20.42,6.83,4.81,15.52,6.98,24.38,5.33,7.95-1.48,15.96-3.21,23.82-5.17,17.23-4.29,27.73-21.75,23.43-38.97-4.29-17.24-21.73-27.73-38.98-23.44h.01Z"/>
        <path class="cls-5" d="M970.75,472.97c2.25,6.79,6.55,12.33,11.99,16.16,8.06,5.67,18.59,7.58,28.65,4.26,16.86-5.6,26-23.78,20.42-40.64-2.54-7.68-5.36-15.39-8.37-22.9-6.6-16.49-25.3-24.52-41.8-17.92-16.48,6.59-24.52,25.31-17.91,41.8,2.52,6.31,4.89,12.78,7.02,19.24h0Z"/>
        <path class="cls-5" d="M837.43,858.13c-5.67,3.75-11.53,7.37-17.43,10.77-15.39,8.88-20.66,28.55-11.79,43.93,2.41,4.18,5.62,7.6,9.31,10.22,9.92,6.98,23.39,8.03,34.61,1.56,7.01-4.04,13.99-8.35,20.74-12.82,14.81-9.79,18.89-29.74,9.1-44.56-9.79-14.83-29.74-18.9-44.55-9.1h.01Z"/>
        <path class="cls-5" d="M1051.81,562.8c-.7-17.75-15.65-31.57-33.41-30.87-17.73.7-31.56,15.66-30.86,33.4.27,6.78.34,13.67.18,20.45-.25,11.13,5.2,21.05,13.66,27.02,5.04,3.55,11.16,5.7,17.79,5.85,17.75.39,32.46-13.69,32.85-31.44.18-8.1.11-16.3-.21-24.4h0Z"/>
        <path class="cls-5" d="M965.5,773.52c-14.23-10.68-34.37-7.78-45.03,6.43-4.08,5.44-8.38,10.82-12.78,15.99-11.5,13.52-9.88,33.82,3.64,45.33.77.65,1.55,1.25,2.36,1.82,13.44,9.47,32.11,7.3,42.98-5.45,5.26-6.17,10.38-12.59,15.26-19.09,10.66-14.21,7.78-34.36-6.42-45.02h0Z"/>
        <path class="cls-5" d="M1012.78,657.27c-16.95-5.31-35,4.12-40.31,21.07-2.03,6.47-4.29,12.98-6.72,19.35-5.34,14.03-.22,29.46,11.5,37.73,2.15,1.51,4.52,2.79,7.1,3.77,16.59,6.33,35.17-1.99,41.5-18.59,2.89-7.58,5.57-15.32,7.99-23.01,5.31-16.95-4.12-34.99-21.07-40.31h.01Z"/>
        <path class="cls-5" d="M592.61,908.67c-28.75-5.16-56.34-13.95-82.49-26.21-.31-.16-.59-.35-.91-.49-6.16-2.9-12.32-6.01-18.28-9.26-.02-.02-.06-.04-.09-.05-10.94-6.03-21.62-12.69-32-20-151.28-106.57-187.66-316.35-81.08-467.63,23.17-32.88,51.22-60.32,82.48-82.06.39-.27.77-.53,1.15-.8,110.18-75.91,259.78-81.03,376.77-3.02l-25.13,36.3c-6.99,10.1-2.69,17.47,9.54,16.37l109.14-9.77c12.24-1.1,19.57-11.69,16.27-23.52l-29.31-105.6c-3.28-11.84-11.68-13.26-18.67-3.15l-25.18,36.39c-85.85-57.63-188.83-79.61-291.03-61.88-10.29,1.78-20.44,3.96-30.45,6.5-.08,0-.14.02-.2.04-.39.09-.78.22-1.16.33-88.13,22.63-165.03,74.04-219.9,147.38-.46.55-.94,1.09-1.38,1.68-1.82,2.46-3.64,4.97-5.41,7.49-2.9,4.12-5.76,8.34-8.49,12.57-.34.51-.6,1.03-.9,1.54-45.28,70.17-67.12,151.28-63.37,233.87v.82c.36,8.07,1,16.25,1.87,24.3.05.52.16,1.01.25,1.53.9,8.1,2.02,16.21,3.44,24.33,14.35,82.78,53.4,157.27,111.92,215.24.14.14.28.28.41.42.05.05.1.08.15.13,15.72,15.51,32.82,29.85,51.23,42.82,48.19,33.95,101.84,56.4,159.47,66.74,17.48,3.14,34.19-8.5,37.32-25.97,3.14-17.49-8.49-34.2-25.97-37.33v-.05Z"/>
        <path class="cls-5" d="M632.38,318.46c-14.38,0-26.03,11.66-26.03,26.02v259.24l237.09,122.56c3.82,1.98,7.9,2.91,11.92,2.91,9.42,0,18.51-5.13,23.14-14.08,6.59-12.77,1.6-28.46-11.17-35.05l-208.95-108.03v-227.55c0-14.36-11.64-26.02-26-26.02h0Z"/>
      </g>
    </g>
  </g>
</svg>